<svg width="258" height="264" viewBox="0 0 258 264" fill="none" xmlns="http://www.w3.org/2000/svg">
<g filter="url(#filter0_d_479_2684)">
<path d="M51.0395 74.7274C51.0395 74.7274 39.6816 79.2204 38.0113 90.134C36.341 101.048 62.1501 133.017 62.1501 133.017L141.742 90.1273L116.578 45.9652L51.0395 74.7274Z" fill="#C7DCF9"/>
<path d="M68.6368 85.0431C68.6368 85.0431 60.262 93.6416 57.6931 103.156C55.1243 112.669 54.7936 129.659 55.2211 136.023C67.7148 147.585 117.098 137.897 117.098 137.897L164.688 81.9163C164.688 81.9163 156.62 66.5999 152.525 62.4008C148.429 58.2017 135.154 52.9804 119.837 59.1438C110.848 71.9013 68.6368 85.0431 68.6368 85.0431Z" fill="#E1ECFF"/>
<g style="mix-blend-mode:multiply">
<path d="M64.9004 89.4893C64.9004 89.4893 83.377 95.4188 104.175 87.3848C124.974 79.3507 128.742 56.7218 128.742 56.7218L119.829 59.147L68.6385 85.043L64.9004 89.4893Z" fill="#E1ECFF"/>
</g>
<path d="M140.115 158.903C140.115 158.903 163.476 159.053 170.04 160.73C176.604 162.407 193.978 201.728 201.167 205.493C208.356 209.258 214.463 203.005 222.383 198.361C230.303 193.718 237.562 188.099 237.79 185.754C238.017 183.409 234.653 174.039 231.743 172.148C228.834 170.257 220.385 170.123 215.879 173.01C209.258 154.971 199.844 128.664 191.212 125.043C182.58 121.422 156.42 119.698 156.42 119.698L140.115 158.903Z" fill="#E1ECFF"/>
<g style="mix-blend-mode:multiply" opacity="0.51">
<path d="M164.688 141.685C164.688 141.685 183.709 143.767 188.964 150.845C194.218 157.924 204.631 201.237 216.286 202.263C216.473 216.293 192.334 221.361 192.334 221.361L134.473 157.069L164.688 141.685Z" fill="#E1ECFF"/>
</g>
<path d="M77.3535 155.355C77.3535 155.355 91.7179 185.483 104.746 193.701C117.774 201.919 141.379 201.254 147.889 206.636C154.4 212.017 153.024 237.87 159.531 244.718C166.038 251.566 175.195 255.762 183.753 254.99C192.312 254.219 199.16 250.113 199.247 246.261C199.334 242.41 198.99 239.069 194.968 237.015C190.946 234.96 185.28 233.25 185.036 230.855C184.792 228.46 180.243 191.994 178.355 182.083C176.468 172.171 161.809 158.385 142.919 151.44C125.03 136.461 97.5538 142.878 97.5538 142.878L77.3535 155.355Z" fill="#E1ECFF"/>
<g style="mix-blend-mode:multiply">
<path d="M81.5325 163.416C81.5325 163.416 98.0182 164.257 112.823 157.753C109.994 142.688 101.265 138.238 101.265 138.238L77.3535 155.355L81.5325 163.416Z" fill="#E1ECFF"/>
</g>
<path d="M104.344 6.07903C91.433 -0.832571 64.3745 -3.16427 47.6717 17.5505C30.969 38.2653 39.2936 59.7483 46.3121 69.75C53.6614 80.246 78.9226 96.2873 105.884 81.2214C132.846 66.1555 135.672 22.8553 104.344 6.07903Z" fill="#E1ECFF"/>
<path d="M102.122 18.7464C113.59 21.4857 121.04 37.5771 117.188 52.9837C113.337 68.3903 100.068 78.7494 85.1757 78.8329C70.2835 78.9164 55.4748 68.7478 55.555 49.7334C55.6352 31.4605 77.2185 12.8002 102.122 18.7464Z" fill="#1C3177"/>
<g style="mix-blend-mode:multiply">
<path d="M69.082 139.093C84.0243 132.158 72.8468 116.324 87.7424 112.723C107.381 115.516 112.813 114.513 112.813 114.513C112.813 114.513 75.242 147.511 69.082 139.093Z" fill="#E1ECFF"/>
</g>
<path d="M81.5352 96.7416L106.402 160.73L141.582 159.891L173.764 139.521L183.352 110.418L160.072 40.5736L148.77 73.2709L119.497 96.5512L81.5352 96.7416Z" fill="#FF97C9"/>
<path d="M69.0821 139.093C77.3266 138.425 81.5256 133.057 84.0244 130.675C85.2971 129.459 85.0432 128.393 84.4019 124.886C83.7605 121.378 85.9853 117.78 89.0252 116.24C90.6954 120.733 92.7466 121.585 94.33 121.375C95.9134 121.164 97.5402 111.704 102.718 111.787C107.896 111.871 112.048 118.722 112.74 122.143C113.431 125.564 110.087 135.322 105.892 142.17C101.696 149.018 95.7764 157.496 82.451 160.149C69.1255 162.801 61.5491 155.996 57.183 147.394C55.7099 144.491 55.1787 140.479 55.2255 136.01C55.2255 136.01 58.2086 139.948 69.0821 139.093Z" fill="#E1ECFF"/>
<path d="M168.085 64.6289C168.085 64.6289 169.672 69.7901 168.603 71.8011C167.534 73.8121 166.078 75.4757 165.009 78.0513C163.94 80.6268 165.523 90.3345 170.23 92.0014C174.937 93.6683 178.832 89.3056 180.075 86.7801C181.317 84.2547 180.629 77.6237 178.789 73.0003C176.948 68.377 173.487 64.2681 168.085 64.6289Z" fill="#E1ECFF"/>
<path d="M173.5 0.503657L174.556 2.64161C174.619 2.77116 174.713 2.88331 174.829 2.9683C174.946 3.0533 175.081 3.10858 175.224 3.12933L177.586 3.46339C177.751 3.48703 177.906 3.5565 178.034 3.66389C178.161 3.77129 178.256 3.91232 178.308 4.07096C178.359 4.2296 178.365 4.3995 178.325 4.56137C178.285 4.72323 178.2 4.87058 178.08 4.98668L176.373 6.65695C176.269 6.75754 176.192 6.88191 176.147 7.01929C176.102 7.15667 176.091 7.30291 176.116 7.44532L176.517 9.78371C176.545 9.9477 176.527 10.1163 176.464 10.2706C176.402 10.4248 176.298 10.5585 176.163 10.6565C176.029 10.7545 175.869 10.813 175.703 10.8252C175.537 10.8374 175.371 10.803 175.224 10.7257L173.109 9.61668C172.982 9.54911 172.84 9.51379 172.695 9.51379C172.551 9.51379 172.409 9.54911 172.281 9.61668L170.166 10.7257C170.019 10.8039 169.852 10.8391 169.686 10.8273C169.519 10.8155 169.359 10.7572 169.224 10.6591C169.089 10.561 168.985 10.4269 168.922 10.2721C168.859 10.1174 168.841 9.94815 168.87 9.78371L169.274 7.44532C169.299 7.30291 169.288 7.15667 169.243 7.01929C169.199 6.88191 169.121 6.75754 169.017 6.65695L167.31 4.98668C167.19 4.87058 167.106 4.72323 167.065 4.56137C167.025 4.3995 167.031 4.2296 167.083 4.07096C167.134 3.91232 167.229 3.77129 167.357 3.66389C167.484 3.5565 167.639 3.48703 167.805 3.46339L170.166 3.12933C170.309 3.10858 170.444 3.0533 170.561 2.9683C170.677 2.88331 170.771 2.77116 170.834 2.64161L171.89 0.503657C171.964 0.352652 172.078 0.225346 172.22 0.136286C172.363 0.0472261 172.527 0 172.695 0C172.863 0 173.028 0.0472261 173.17 0.136286C173.312 0.225346 173.427 0.352652 173.5 0.503657Z" fill="#FEC272"/>
<path d="M60.4807 226.756L61.3659 228.55C61.4187 228.659 61.4975 228.753 61.5954 228.824C61.6933 228.895 61.8073 228.941 61.9271 228.957L63.9081 229.245C64.0462 229.265 64.1758 229.323 64.2825 229.413C64.3891 229.503 64.4685 229.621 64.5116 229.754C64.5546 229.887 64.5598 230.029 64.5263 230.164C64.4929 230.3 64.4222 230.423 64.3223 230.521L62.8892 231.917C62.8012 232.002 62.7356 232.108 62.6983 232.224C62.661 232.341 62.6531 232.465 62.6754 232.585L63.0095 234.556C63.0324 234.694 63.0166 234.835 62.9639 234.964C62.9112 235.093 62.8236 235.205 62.7109 235.287C62.5983 235.369 62.465 235.418 62.326 235.429C62.187 235.44 62.0477 235.412 61.9238 235.348L60.1533 234.416C60.046 234.36 59.9268 234.331 59.8059 234.331C59.6849 234.331 59.5657 234.36 59.4585 234.416L57.6946 235.341C57.5708 235.406 57.4312 235.436 57.2916 235.425C57.152 235.415 57.0181 235.366 56.905 235.284C56.792 235.201 56.7043 235.089 56.6519 234.959C56.5996 234.829 56.5847 234.687 56.609 234.549L56.943 232.578C56.9637 232.458 56.9547 232.334 56.9169 232.218C56.8791 232.101 56.8135 231.996 56.7259 231.91L55.2961 230.514C55.1962 230.417 55.1256 230.293 55.0921 230.158C55.0587 230.022 55.0638 229.88 55.1069 229.747C55.15 229.615 55.2293 229.497 55.3359 229.407C55.4426 229.317 55.5723 229.258 55.7104 229.238L57.688 228.951C57.8081 228.934 57.9224 228.888 58.0208 228.817C58.1192 228.746 58.1987 228.652 58.2525 228.543L59.1378 226.749C59.2001 226.624 59.2962 226.519 59.4153 226.446C59.5343 226.372 59.6715 226.334 59.8113 226.335C59.9511 226.335 60.0879 226.375 60.2062 226.45C60.3245 226.524 60.4196 226.63 60.4807 226.756Z" fill="#FEC272"/>
<g style="mix-blend-mode:soft-light" opacity="0.48">
<path d="M92.113 37.954C100.334 36.142 106.479 32.3157 105.838 29.4078C105.197 26.4998 98.013 25.6114 89.7919 27.4235C81.5708 29.2355 75.4258 33.0618 76.0668 35.9697C76.7077 38.8777 83.8919 39.7661 92.113 37.954Z" fill="white"/>
</g>
<g style="mix-blend-mode:multiply">
<path d="M110.836 131.737C110.836 131.737 101.379 123.286 99.6649 123.286C97.9512 123.286 93.388 129.967 94.4169 131.737C95.4458 133.508 100.731 139.307 106.533 141.091C108.414 137.503 110.836 131.737 110.836 131.737Z" fill="#E1ECFF"/>
</g>
<g style="mix-blend-mode:multiply" opacity="0.5">
<path d="M119.496 96.5512L141.58 159.891L173.763 139.521L148.769 73.2709L119.496 96.5512Z" fill="#FF97C9"/>
</g>
<g style="mix-blend-mode:multiply">
<path d="M180.249 194.182C176.939 196.924 173.22 199.13 169.226 200.72C165.481 202.163 164.215 205.116 165.347 210.534C166.48 215.953 167.114 224.401 169.453 226.626C171.791 228.85 179.835 227.668 184.004 222.497C182.698 212.308 180.249 194.182 180.249 194.182Z" fill="#E1ECFF"/>
</g>
<g style="mix-blend-mode:multiply">
<path d="M202.045 138.939C202.045 138.939 197.369 140.977 197.813 144.228C198.257 147.478 203.034 163.189 204.918 164.605C206.802 166.021 212.378 163.509 212.378 163.509C206.652 147.287 202.045 138.939 202.045 138.939Z" fill="#E1ECFF"/>
</g>
<path d="M4.68656 176.534C0.968523 168.824 13.0847 160.573 23.3937 161.168C33.7026 161.762 38.0353 171.279 41.6865 174.83C49.313 182.24 49.0725 189.489 43.7911 192.606C38.5097 195.722 9.60719 186.733 4.68656 176.534Z" fill="#99ADF9"/>
<path d="M212.655 57.0926C209.648 54.4603 212.741 42.0869 219.843 39.1906C226.945 36.2944 235.765 39.4612 237.649 44.4253C239.533 49.3893 218.818 62.4843 212.655 57.0926Z" fill="#99ADF9"/>
<path d="M247.458 63.7136C245.918 65.9084 244.893 72.1585 248.143 73.2709C251.393 74.3833 253.852 67.9528 252.71 64.6055C251.567 61.2583 248.487 62.2471 247.458 63.7136Z" fill="#99ADF9"/>
<path opacity="0.44" d="M249.795 12.994C247.37 14.1364 243.371 19.047 245.643 21.6293C247.915 24.2115 253.236 19.8488 253.907 16.3779C254.579 12.9071 251.415 12.2323 249.795 12.994Z" fill="#99ADF9"/>
<path opacity="0.44" d="M21.7434 208.974C19.6455 207.304 13.4755 205.884 12.1593 209.061C10.8432 212.238 17.11 215.074 20.5107 214.159C23.9114 213.243 23.1397 210.09 21.7434 208.974Z" fill="#99ADF9"/>
<g style="mix-blend-mode:multiply" opacity="0.64">
<path d="M39.8597 172.716C36.1283 173.417 36.7296 176.755 37.9255 179.778C39.1214 182.801 43.3305 183.663 46.3002 180.9C44.3727 176.314 39.8597 172.716 39.8597 172.716Z" fill="#99ADF9"/>
</g>
<g style="mix-blend-mode:multiply" opacity="0.64">
<path d="M18.4074 167.682C15.7349 167.979 13.5569 171.847 15.4409 174.984C17.325 178.121 20.9161 180.406 22.9706 179.551C25.025 178.695 25.3691 174.072 23.8859 171.106C22.4027 168.139 20.9762 167.394 18.4074 167.682Z" fill="#99ADF9"/>
</g>
<g style="mix-blend-mode:multiply" opacity="0.64">
<path d="M229.313 41.8563C227.847 42.324 226.36 43.9108 226.49 45.6245C226.621 47.3382 228.117 48.8348 229.741 48.631C231.364 48.4272 232.747 45.8049 232.413 43.9208C232.079 42.0367 230.432 41.5022 229.313 41.8563Z" fill="#99ADF9"/>
</g>
<g style="mix-blend-mode:multiply" opacity="0.64">
<path d="M213.782 45.1969C213.782 45.1969 215.786 47.2012 215.452 49.4761C215.118 51.7511 211.664 51.5406 211.664 51.5406C211.664 51.5406 212.179 47.6622 213.782 45.1969Z" fill="#99ADF9"/>
</g>
</g>
<defs>
<filter id="filter0_d_479_2684" x="0" y="0" width="258" height="263.081" filterUnits="userSpaceOnUse" color-interpolation-filters="sRGB">
<feFlood flood-opacity="0" result="BackgroundImageFix"/>
<feColorMatrix in="SourceAlpha" type="matrix" values="0 0 0 0 0 0 0 0 0 0 0 0 0 0 0 0 0 0 127 0" result="hardAlpha"/>
<feOffset dy="4"/>
<feGaussianBlur stdDeviation="2"/>
<feComposite in2="hardAlpha" operator="out"/>
<feColorMatrix type="matrix" values="0 0 0 0 0 0 0 0 0 0 0 0 0 0 0 0 0 0 0.25 0"/>
<feBlend mode="normal" in2="BackgroundImageFix" result="effect1_dropShadow_479_2684"/>
<feBlend mode="normal" in="SourceGraphic" in2="effect1_dropShadow_479_2684" result="shape"/>
</filter>
</defs>
</svg>
