<svg width="36" height="36" viewBox="0 0 36 36" fill="none" xmlns="http://www.w3.org/2000/svg">
<path d="M36 18C36 27.941 27.941 36 18 36C8.059 36 0 27.941 0 18C0 8.059 8.059 0 18 0C27.941 0 36 8.059 36 18Z" fill="#FFCC4D"/>
<path fill-rule="evenodd" clip-rule="evenodd" d="M1.2398 11.018C1.4798 11.257 2.6778 11.975 2.9168 12.693C3.1568 13.41 3.6368 17.477 5.0748 18.674C6.5578 19.906 12.1518 19.448 13.2228 18.914C15.6198 17.719 15.9138 14.383 16.3378 12.693C16.5768 11.736 18.0148 11.736 18.0148 11.736C18.0148 11.736 19.4528 11.736 19.6928 12.692C20.1168 14.383 20.4128 17.719 22.8078 18.913C23.8798 19.448 29.4738 19.907 30.9588 18.675C32.3948 17.478 32.8738 13.411 33.1138 12.693C33.3518 11.976 34.5518 11.258 34.7908 11.019C35.0318 10.78 35.0318 9.823 34.7908 9.583C34.3118 9.105 28.6568 8.679 22.5678 9.344C21.3528 9.477 20.8908 9.822 18.0138 9.822C15.1388 9.822 14.6748 9.476 13.4608 9.344C7.3758 8.678 1.7198 9.104 1.2398 9.582C1.0008 9.821 1.0008 10.779 1.2398 11.018Z" fill="#292F33"/>
<path d="M27.3351 23.629C27.1571 23.468 26.8911 23.458 26.7001 23.6C26.6611 23.629 22.7781 26.5 18.0001 26.5C13.2341 26.5 9.33808 23.629 9.30008 23.6C9.10908 23.458 8.84308 23.47 8.66508 23.629C8.48808 23.789 8.44808 24.053 8.57108 24.257C8.70008 24.472 11.7881 29.5 18.0001 29.5C24.2121 29.5 27.3011 24.472 27.4291 24.257C27.5521 24.052 27.5131 23.789 27.3351 23.629Z" fill="#664500"/>
</svg>
