<svg width="37" height="35" viewBox="0 0 37 35" fill="none" xmlns="http://www.w3.org/2000/svg">
<path d="M18.5007 0.146667L11.7461 4.375H5.95898V7.95833L2.3219 10.2696C1.28273 10.8967 0.583984 12.0254 0.583984 13.3333V31.25C0.583984 32.2004 0.961513 33.1118 1.63352 33.7838C2.30552 34.4558 3.21696 34.8333 4.16732 34.8333H32.834C34.8227 34.8333 36.4173 33.2388 36.4173 31.25V13.3333C36.4173 12.0254 35.7186 10.8967 34.6794 10.2696L31.0423 7.95833V4.375H25.2552L18.5007 0.146667ZM9.54232 7.95833H27.459V16.7017L18.5007 22.2917L9.54232 16.7017V7.95833ZM11.334 9.75V12.4375H25.6673V9.75H11.334ZM5.95898 12.2225V14.4621L4.16732 13.3333L5.95898 12.2225ZM31.0423 12.2225L32.834 13.3333L31.0423 14.4621V12.2225ZM11.334 14.2292V16.9167H25.6673V14.2292H11.334Z" fill="white"/>
</svg>
