<svg width="27" height="20" viewBox="0 0 27 20" fill="none" xmlns="http://www.w3.org/2000/svg">
<path d="M27 2.37575C26.0071 2.76628 24.9266 3.04735 23.8136 3.15682C24.9691 2.53089 25.8344 1.54202 26.2472 0.375752C25.1629 0.963885 23.975 1.37629 22.7363 1.59469C22.2186 1.09003 21.5924 0.687999 20.8969 0.413643C20.2013 0.139287 19.4512 -0.00151415 18.6933 1.22793e-05C15.627 1.22793e-05 13.1609 2.26628 13.1609 5.04735C13.1609 5.43788 13.2128 5.82841 13.2972 6.20415C8.70581 5.98522 4.61086 3.98522 1.88848 0.923088C1.39243 1.69562 1.13248 2.57524 1.13568 3.47042C1.13568 5.2219 2.11237 6.76628 3.60173 7.67456C2.72403 7.64305 1.86687 7.42308 1.09999 7.03255V7.09468C1.09999 9.54734 3.00144 11.5799 5.53563 12.0473C5.05981 12.16 4.57033 12.2177 4.07872 12.2189C3.71854 12.2189 3.37784 12.1864 3.03389 12.142C3.73477 14.142 5.77575 15.5947 8.2061 15.642C6.30465 17 3.92297 17.7988 1.33686 17.7988C0.872852 17.7988 0.444538 17.784 0 17.7367C2.45307 19.1716 5.36366 20 8.49814 20C18.6738 20 24.2419 12.3136 24.2419 5.64202C24.2419 5.42309 24.2419 5.20415 24.2257 4.98522C25.303 4.26628 26.2472 3.37575 27 2.37575Z" fill="white"/>
</svg>
